<svg id="eab38be6-400f-4307-af4c-8f24956b1905" data-name="Layer 1" xmlns="http://www.w3.org/2000/svg" width="842.16979" height="568.85227" viewBox="0 0 842.16979 568.85227"><path d="M716.621,734.1684v-72.34S744.81264,713.11437,716.621,734.1684Z" transform="translate(-178.45119 -165.31613)" fill="#f1f1f1"/><path d="M718.36244,734.15568l-53.28962-48.92125S721.918,699.15,718.36244,734.15568Z" transform="translate(-178.45119 -165.31613)" fill="#f1f1f1"/><rect id="f54375ad-557d-4249-95e2-413e25c77bd8" data-name="Rectangle 62" x="0.35895" y="23.0788" width="841.81084" height="399.45384" fill="#e5e5e5"/><rect id="eb84611c-d49d-4ce2-b538-4fee0a7e188d" data-name="Rectangle 75" x="24.43081" y="57.33267" width="793.66829" height="333.27683" fill="#fff"/><rect id="a33b5263-04c3-449f-a8ad-1420252c1e48" data-name="Rectangle 80" width="841.81084" height="35.76263" fill="#6c63ff"/><circle id="a01a8c4b-bf8b-4728-9381-d6cbaed15ee5" data-name="Ellipse 90" cx="26.57607" cy="17.81511" r="6.62847" fill="#fff"/><circle id="a70f271b-ee75-4447-9507-72af025f0784" data-name="Ellipse 91" cx="51.73556" cy="17.81511" r="6.62847" fill="#fff"/><circle id="b6ae4294-4107-4abd-ba05-1d458fcbc8d7" data-name="Ellipse 92" cx="76.89622" cy="17.81511" r="6.62847" fill="#fff"/><path id="a98f5d70-28fc-4129-b4f3-463d07786f2f" data-name="Path 680" d="M332.91148,298.51922a3.268,3.268,0,0,0,0,6.536h89.293a3.268,3.268,0,1,0,0-6.536Z" transform="translate(-178.45119 -165.31613)" fill="#3f3d56"/><path id="a5717240-4d8d-4c71-83bc-6deeb889f166" data-name="Path 680" d="M282.41148,343.51922a3.268,3.268,0,0,0,0,6.536h190.293a3.268,3.268,0,1,0,0-6.536Z" transform="translate(-178.45119 -165.31613)" fill="#ccc"/><path id="f9c6f13d-6e3a-4758-9844-a0f5d5c969ce" data-name="Path 680" d="M282.41148,369.51922a3.268,3.268,0,0,0,0,6.536h190.293a3.268,3.268,0,1,0,0-6.536Z" transform="translate(-178.45119 -165.31613)" fill="#ccc"/><path id="bf808dfd-2bb2-4793-b7c6-d8671bf7e9b4" data-name="Path 680" d="M282.41148,395.51922a3.268,3.268,0,0,0,0,6.536h190.293a3.268,3.268,0,1,0,0-6.536Z" transform="translate(-178.45119 -165.31613)" fill="#ccc"/><path id="e27373f7-fd0b-426a-8828-0829b084b689" data-name="Path 680" d="M282.41148,421.51922a3.268,3.268,0,0,0,0,6.536h190.293a3.268,3.268,0,1,0,0-6.536Z" transform="translate(-178.45119 -165.31613)" fill="#ccc"/><path id="b4c6c7b3-e22e-4fba-a4f6-80d19d07dbd3" data-name="Path 680" d="M282.41148,447.51922a3.268,3.268,0,0,0,0,6.536h190.293a3.268,3.268,0,1,0,0-6.536Z" transform="translate(-178.45119 -165.31613)" fill="#ccc"/><path id="ebf0dc46-a6ad-47cb-a3de-ddb71e9e94e3" data-name="Path 680" d="M282.41148,473.51922a3.268,3.268,0,0,0,0,6.536h190.293a3.268,3.268,0,1,0,0-6.536Z" transform="translate(-178.45119 -165.31613)" fill="#ccc"/><path d="M910.16054,481.4543H622.05779a7.271,7.271,0,0,1-7.2631-7.26309V304.719a7.271,7.271,0,0,1,7.2631-7.26309H910.16054a7.271,7.271,0,0,1,7.2631,7.26309V474.19121A7.271,7.271,0,0,1,910.16054,481.4543Z" transform="translate(-178.45119 -165.31613)" fill="#f1f1f1"/><path d="M948.06072,520.21623H659.958a7.271,7.271,0,0,1-7.26309-7.2631V343.48092a7.271,7.271,0,0,1,7.26309-7.26309H948.06072a7.271,7.271,0,0,1,7.26309,7.26309V512.95313A7.271,7.271,0,0,1,948.06072,520.21623Z" transform="translate(-178.45119 -165.31613)" fill="#fff"/><path d="M948.0605,522.68784H659.958a9.74579,9.74579,0,0,1-9.73465-9.73485V343.4813a9.7458,9.7458,0,0,1,9.73465-9.73486H948.0605a9.74585,9.74585,0,0,1,9.73486,9.73486V512.953A9.74584,9.74584,0,0,1,948.0605,522.68784ZM659.958,338.6895a4.79721,4.79721,0,0,0-4.7916,4.7918V512.953a4.79721,4.79721,0,0,0,4.7916,4.7918H948.0605a4.79738,4.79738,0,0,0,4.7918-4.7918V343.4813a4.79738,4.79738,0,0,0-4.7918-4.7918Z" transform="translate(-178.45119 -165.31613)" fill="#3f3d56"/><circle cx="625.16979" cy="285.43031" r="25" fill="#ff6583"/><path d="M851.849,426.695a16.09868,16.09868,0,0,0-23.02463-.41135l-81.07973,81.08013c-10.386,10.43459-21.22811-5.52482-28.15628-11.9606-16.66045-16.47735-34.65555,14.419-45.85423,23.26678H934.2846v-3.3168Z" transform="translate(-178.45119 -165.31613)" fill="#6c63ff"/><path d="M530.68063,524.9767l-4.38425-60.75355,7.8739-56.93181-22.3624-1.50994-4.41411,62.88884L519.869,527.80992a8.79767,8.79767,0,1,0,10.81159-2.83322Z" transform="translate(-178.45119 -165.31613)" fill="#9f616a"/><path d="M508.95477,413.96379l5.251-22.72576a17.49724,17.49724,0,0,1,34.43542,5.897l-2.8917,25.67924Z" transform="translate(-178.45119 -165.31613)" fill="#cbcbcb"/><polygon points="371.903 557.597 382.445 557.597 387.46 516.933 371.901 516.934 371.903 557.597" fill="#9f616a"/><path d="M547.66455,719.47144l20.7617-.00084h.00084a13.23168,13.23168,0,0,1,13.231,13.23076v.43l-33.99289.00126Z" transform="translate(-178.45119 -165.31613)" fill="#2f2e41"/><polygon points="424.424 557.252 434.559 554.349 428.184 513.876 413.226 518.161 424.424 557.252" fill="#9f616a"/><path d="M599.34235,719.99967l19.95893-5.71742.00081-.00024a13.2317,13.2317,0,0,1,16.36256,9.07627l.11839.41333-32.67857,9.361Z" transform="translate(-178.45119 -165.31613)" fill="#2f2e41"/><path d="M544.65572,708.15422l4.90409-123.1785-12.73593-55.74418c-17.13859-28.7351,1.35092-74.57013,1.53985-75.02995l.06876-.16759.17972-.02456,44.832-6.074.62973,1.44515a214.69124,214.69124,0,0,1,13.94748,127.51609l-4.66605,23.86585,23.06132,93.11029-21.82566,10.91291-16.74555-43.4245L566.52636,705.79Z" transform="translate(-178.45119 -165.31613)" fill="#2f2e41"/><path d="M532.459,465.6262l-14.62586-42.85509c-9.09235-16.01207-3.3251-30.22752,3.11438-39.33307,6.95394-9.83243,7.3714-15.34659,7.46364-15.40768l.07444-.04911,19.21593-.58229,17.78443,18.07143c1.1187-.4371,10.568,22.84952,9.767,24.02026l12.421,40.152Z" transform="translate(-178.45119 -165.31613)" fill="#cbcbcb"/><path d="M650.88561,473.03769l-48.17993-37.26808L565.551,391.92034,549.50639,407.5705,593.40674,452.817l52.376,30.1644a8.79767,8.79767,0,1,0,5.1029-9.94375Z" transform="translate(-178.45119 -165.31613)" fill="#9f616a"/><path d="M544.94672,423.42644l-13.42486-19.07371a17.49724,17.49724,0,0,1,27.36746-21.71625l17.199,19.28682Z" transform="translate(-178.45119 -165.31613)" fill="#cbcbcb"/><circle cx="357.38226" cy="174.00948" r="22.81899" fill="#9f616a"/><path d="M559.03585,327.74915H522.802V311.95491c7.95292-3.15955,15.73526-5.84657,20.4396,0a15.79433,15.79433,0,0,1,15.79424,15.79423Z" transform="translate(-178.45119 -165.31613)" fill="#2f2e41"/><path d="M527.796,308.16769c-33.19817-.90658-26.9117,53.78567-26.9117,53.78567s6.26341.82834,9.12141,1.315l3.45152-1.94369,3.71386,2.43573c1.70527.00851,3.49673-.0245,5.354-.059l1.70255-3.50569,3.79659,3.4428c6.91068.01028,25.66641.20072,25.66641.20072S564.99338,309.18349,527.796,308.16769Z" transform="translate(-178.45119 -165.31613)" fill="#2f2e41"/><path d="M796.63279,733.74644h-381a1,1,0,0,1,0-2h381a1,1,0,0,1,0,2Z" transform="translate(-178.45119 -165.31613)" fill="#cbcbcb"/></svg>




<!-- <ellipse
          cx="549.375"
          cy="600.77366"
          rx="549.375"
          ry="31.59674"
          fill={theme.compImgHighlight}
        />
        <rect
          x="174.96748"
          width="825.31765"
          height="26.25696"
          fill={theme.compImgHighlight}
        />
        <circle
          cx="197.05271"
          cy="12.74148"
          r="6.79546"
          fill={theme.imageHighlight}
        />
        <circle
          cx="219.13794"
          cy="12.74148"
          r="6.79546"
          fill={theme.imageHighlight}
        />
        <circle
          cx="241.22317"
          cy="12.74148"
          r="6.79546"
          fill={theme.imageHighlight}
        />
        <polygon
          points="175.552 415.277 174.967 415.779 174.967 592.903 1000.285 592.903 1000.285 281.779 990.449 282.525 175.552 415.277"
          fill={theme.text}
        />
        <rect
          x="234.5289"
          y="175.64069"
          width="230.47032"
          height="9.29316"
          fill={theme.text}
        />
        <rect
          x="234.5289"
          y="196.08564"
          width="230.47032"
          height="9.29316"
          fill={theme.text}
        />
        <rect
          x="234.5289"
          y="216.53058"
          width="78.06253"
          height="9.29316"
          fill={theme.text}
        />
        <rect
          x="704.5289"
          y="433.64069"
          width="230.47032"
          height="9.29316"
          fill="#fff"
        />
        <rect
          x="704.5289"
          y="454.08564"
          width="230.47032"
          height="9.29316"
          fill="#fff"
        />
        <rect
          x="704.5289"
          y="474.53058"
          width="78.06253"
          height="9.29316"
          fill="#fff"
        />
        <circle
          cx="561.33549"
          cy="575.26922"
          r="9.0658"
          fill={theme.compImgHighlight}
        />
        <circle
          cx="587.6263"
          cy="576.1758"
          r="9.0658"
          fill={theme.compImgHighlight}
        />
        <circle
          cx="613.91711"
          cy="577.08238"
          r="9.0658"
          fill={theme.compImgHighlight}
        />
        <circle cx="587.70943" cy="576.1758" r="7.25264" fill={theme.text} />
        <rect
          x="310.5289"
          y="282.01368"
          width="78.06253"
          height="17.81006"
          fill={theme.text}
        />
        <rect
          x="774.5289"
          y="523.01368"
          width="78.06253"
          height="17.81006"
          fill="#fff"
        />
        <circle
          cx="350"
          cy="291.01368"
          r="54"
          fill={theme.imageHighlight}
          opacity="0.3"
        />
        <circle
          cx="350"
          cy="291.01368"
          r="36"
          fill={theme.imageHighlight}
          opacity="0.3"
        />
        <circle cx="350" cy="291.01368" r="25" fill={theme.imageHighlight} />
        <circle
          cx="804.375"
          cy="157.1852"
          r="54"
          fill={theme.imageHighlight}
          opacity="0.3"
        />
        <circle
          cx="804.375"
          cy="157.1852"
          r="36"
          fill={theme.imageHighlight}
          opacity="0.3"
        />
        <circle cx="804.375" cy="157.1852" r="25" fill={theme.imageHighlight} />
        <circle
          cx="814"
          cy="532.01368"
          r="54"
          fill={theme.imageHighlight}
          opacity="0.3"
        />
        <circle
          cx="814"
          cy="532.01368"
          r="36"
          fill={theme.imageHighlight}
          opacity="0.3"
        />
        <circle cx="814" cy="532.01368" r="25" fill={theme.imageHighlight} />
        <rect
          x="141.09287"
          y="215.02041"
          width="22.24232"
          height="28.59727"
          transform="translate(244.80285 330.54921) rotate(-177.77929)"
          fill={theme.imageHighlight}
        />
        <path
          d="M241.91491,314.67894s30.77895-14.70576,30.28646-2.00541-31.02521,21.05594-31.02521,21.05594Z"
          transform="translate(-50.625 -133.8148)"
          fill="#ffb9b9"
        />
        <path
          d="M225.02834,422.13944S239.54941,457.681,244.9146,483.328s13.53608,60.94229,3.02582,85.97362-40.39191,98.59934-40.69972,106.53706,2.55946,15.99857-3.79071,15.75232-40.90677-11.12588-42.30963-15.95007,11.79-17.032,11.79-17.032l32.57732-102.08224L171.5182,490.02139l-24.51648,99.215-4.80184,123.82843s-23.56691-7.2736-26.98824-1.04655c0,0-10.55875-14.71883-11.90005-21.13057s4.98653-128.59106,4.98653-128.59106-21.63236-139.16289-4.16937-138.4857S189.99232,382.62245,225.02834,422.13944Z"
          transform="translate(-50.625 -133.8148)"
          fill={theme.dark}
        />
        <path
          d="M203.69623,685.2408s16.10862,35.60315,17.63461,37.25226,12.02317,17.95548,4.08545,17.64767-26.68044-8.98428-40.47584-22.23869-31.98406-36.21877-30.33495-37.74475,12.9466-5.85768,12.9466-5.85768Z"
          transform="translate(-50.625 -133.8148)"
          fill={theme.dark}
        />
        <path
          d="M139.33261,705.00394s.97192,15.937,3.90076,22.4103,2.55947,15.99856-5.37825,15.69075-28.45267-4.2832-28.45267-4.2832-1.21817-9.58683.43093-11.11281,8.67647-18.74272,5.68607-23.62847S139.33261,705.00394,139.33261,705.00394Z"
          transform="translate(-50.625 -133.8148)"
          fill={theme.dark}
        />
        <path
          d="M127.58939,187.8209s-16.922,26.37263-23.51842,32.47656,11.9616,19.543,11.9616,19.543l33.2153,4.46789s-.41786-30.2249,1.29281-33.33842S127.58939,187.8209,127.58939,187.8209Z"
          transform="translate(-50.625 -133.8148)"
          fill="#ffb9b9"
        />
        <path
          d="M156.45992,222.329s-6.84267,12.45411-13.19285,12.20786-39.1961-14.2394-40.599-19.0636-10.87963,34.5566-10.87963,34.5566L172.16,391.47053l19.60459-13.54915-9.49913-83.04478-7.80153-44.8206Z"
          transform="translate(-50.625 -133.8148)"
          fill={theme.imageHighlight}
        />
        <path
          d="M99.70361,348.91253c3.206,6.70666,5.20835,13.70047,4.9307,20.86031-.01231.31753-.02462.635-.05282.95187-.76057,14.69329-6.17341,31.68645-8.11534,44.04442-1.40908,8.86485-1.00808,15.33552,4.1797,16.85636,12.57723,3.66759-1.83379,6.28862,46.826,22.48494s57.15159,2.21623,57.27471-.95886-6.89116-27.29606-5.24206-28.822,23.07442,19.974,29.54772,17.04512.73874-19.05053.73874-19.05053-14.58264-33.954-14.27483-41.89176-22.08942-45.37466-22.08942-45.37466L178.193,235.89122s-5.85768-12.9466-13.73384-14.84195-14.411,2.621-14.411,2.621L163.228,252.80015l13.90546,51.417-2.32629,18.989s-16.17018-34.0156-26.7905-47.14689-33.26379-44.21805-33.26379-44.21805-5.28646-17.83738-1.2957-23.16791c3.99136-5.34632-16.64671-6.14663-25.4463,15.77118-4.66382,11.61641-12.23581,28.93924-16.97922,45.068-4.22682,14.28852-6.22343,27.646-2.03588,35.28111C75.396,316.45748,91.4958,331.78866,99.70361,348.91253Z"
          transform="translate(-50.625 -133.8148)"
          fill={theme.jacketColor}
        />
        <path
          d="M68.99574,304.79359c6.40029,11.66389,22.50006,26.99507,30.70787,44.11894,2.14378-7.72349,4.75909-15.71476,4.75909-15.71476s10.03082-53.66869-19.64-67.53872a19.85762,19.85762,0,0,0-13.79106,3.85343C66.8048,283.801,64.80819,297.15851,68.99574,304.79359Z"
          transform="translate(-50.625 -133.8148)"
          opacity="0.1"
        />
        <path
          d="M186.7818,301.41146l25.15446,7.33517,34.926,1.35436,3.593,30.348L193.05735,344.583S178.721,304.27874,186.7818,301.41146Z"
          transform="translate(-50.625 -133.8148)"
          fill={theme.jacketColor}
        />
        <path
          d="M145.764,403.451s33.65163,5.58313,25.971,15.7098-37.49194-.51979-37.49194-.51979Z"
          transform="translate(-50.625 -133.8148)"
          fill="#ffb9b9"
        />
        <path
          d="M104.58149,370.72471c-.76057,14.69329-6.17341,31.68645-8.11534,44.04442,10.72016,10.14608,20.91438,19.09523,24.75621,19.24421,7.93772.30781,20.69963-.78723,25.4007.985s7.4583-28.32955,7.4583-28.32955-2.80572-9.64839-15.32139-14.90351C130.31217,388.21008,114.119,378.56726,104.58149,370.72471Z"
          transform="translate(-50.625 -133.8148)"
          opacity="0.1"
        />
        <path
          d="M85.19206,256.13379s-26.86513-4.22165-25.41378,40.35271-2.83185,73.027,7.97315,81.39568,45.90258,46.29809,53.8403,46.6059,20.69964-.78724,25.40071.985,7.45829-28.32954,7.45829-28.32954S151.645,387.49514,139.12935,382.24s-42.00182-23.88779-41.75558-30.238,7.4583-28.32955,7.4583-28.32955S114.8629,270.00382,85.19206,256.13379Z"
          transform="translate(-50.625 -133.8148)"
          fill={theme.jacketColor}
        />
        <circle cx="100.65442" cy="58.10462" r="34.95222" fill="#ffb9b9" />
        <path
          d="M174.81363,141.82272a6.74905,6.74905,0,0,0,2.93882,1.47478,2.09716,2.09716,0,0,0,2.43029-1.68345c.79968,1.65841,1.70192,3.42593,3.33461,4.27689s4.15732.13741,4.39266-1.68864a7.706,7.706,0,0,0,1.77364,3.74392c1.013.96584,2.85,1.20961,3.73439.12482-.715,3.90745-.27369,7.92586-.49823,11.89184s-1.2821,8.17049-4.27847,10.7784c-4.36987,3.80334-10.94108,2.86467-16.68929,2.1441a5.06575,5.06575,0,0,0-2.61539.14307c-2.15231.917-2.05467,3.9131-2.08369,6.25243a17.37275,17.37275,0,0,1-15.21221,16.49749,8.70861,8.70861,0,0,1-6.47244-1.57964c-1.63206-1.38336-2.46572-3.63806-4.33585-4.67724-3.04207-1.6904-6.73153.77486-8.95568,3.45158s-4.4162,5.96933-7.86172,6.45932c-4.55691.648-8.02766-3.996-9.73047-8.27217a48.223,48.223,0,0,1,.95837-37.46978C125.15791,132.94937,157.66118,129.66876,174.81363,141.82272Z"
          transform="translate(-50.625 -133.8148)"
          fill={theme.dark}
        />
        <path
          d="M1013.84731,697.58434c12.30975,20.99239,37.13647,29.30353,37.13647,29.30353s4.86866-25.72424-7.44108-46.71664-37.13647-29.30354-37.13647-29.30354S1001.53756,676.59194,1013.84731,697.58434Z"
          transform="translate(-50.625 -133.8148)"
          fill={theme.compImgHighlight}
        />
        <path
          d="M1021.52851,690.25752c21.28835,11.79052,30.20667,36.40565,30.20667,36.40565s-25.59693,5.49892-46.88529-6.2916-30.20667-36.40564-30.20667-36.40564S1000.24015,678.467,1021.52851,690.25752Z"
          transform="translate(-50.625 -133.8148)"
          fill={theme.imageHighlight}
        /> -->
      </svg>