<svg width="398" height="58" viewBox="0 0 398 58" fill="none" xmlns="http://www.w3.org/2000/svg">
<path d="M0 28.5584C0 28.0673 0.0120707 27.5804 0.0362121 27.0979C0.557667 16.891 6.83323 7.26793 15.8953 2.84408C21.2879 0.190478 27.3755 -0.632412 33.2623 0.496489C39.149 1.62539 44.5242 4.64647 48.5967 9.11519C49.3209 9.89609 49.9782 10.7304 50.621 11.5776C50.802 11.8207 50.802 11.9754 50.5829 12.1964C47.109 15.7166 43.6405 19.2429 40.1774 22.7754C39.9637 22.9927 39.866 23.024 39.703 22.7017C37.313 17.9279 32.1365 14.8062 26.8386 15.3881C17.0614 16.4656 11.2819 29.2012 18.0753 36.9936C20.4997 39.7709 23.1993 42.2775 25.7505 44.9314C26.4747 45.6773 27.1989 46.4048 27.9232 47.1415C28.1169 47.346 28.2183 47.346 28.4229 47.1415C41.1334 34.2003 53.8481 21.2621 66.567 8.32693C69.2537 5.59692 72.4566 3.44919 75.9821 2.01345C77.3108 1.47802 78.679 1.05062 80.0741 0.735289C82.4625 0.168428 84.9145 -0.0724996 87.3654 0.0188529C106.871 0.777648 119.976 22.0571 112.002 40.2313C110.98 42.5706 109.647 44.7562 108.041 46.7271C102.279 53.792 92.9693 57.9838 83.9198 57.0611C79.2919 56.5878 74.9899 55.1365 71.0772 52.5323C68.693 50.946 66.5511 49.0118 64.7202 46.7916C64.4015 46.4067 64.1299 45.9794 63.8149 45.5963C63.5976 45.3385 63.6338 45.1709 63.8583 44.9388C65.8789 42.9006 67.8942 40.8557 69.9039 38.804C71.3307 37.3515 72.7556 35.8977 74.1788 34.4428C74.4323 34.1812 74.5536 34.0597 74.7835 34.5183C76.3515 37.64 78.7668 39.8409 81.997 41.0435C86.0564 42.5501 90.7911 41.7563 94.2204 39.1281C97.8724 36.3305 99.8206 31.4499 99.2738 26.8751C98.7523 22.4972 95.9568 19.7144 93.0888 16.7455C90.9414 14.5152 88.756 12.3382 86.6032 10.1281C86.3895 9.90898 86.2972 9.91266 86.0871 10.1281C80.9329 15.3746 75.7751 20.6162 70.6137 25.8529C65.4233 31.1166 60.2238 36.3729 55.0153 41.6218C52.3972 44.2703 49.8171 46.9629 47.1464 49.5524C44.9467 51.668 42.4048 53.382 39.6324 54.619C37.8381 55.4415 35.9634 56.0687 34.0394 56.4902C31.2547 57.0924 28.4483 57.3521 25.6147 57.0556C20.784 56.5528 16.31 54.9984 12.2868 52.1953C4.73836 46.9408 0.0217273 37.8481 0 28.5584Z" fill="#0F5CF0"/>
<path d="M158.286 23.826C158.286 25.4321 157.918 26.9065 157.181 28.2493C156.443 29.5657 155.311 30.6321 153.784 31.4483C152.257 32.2645 150.361 32.6726 148.097 32.6726H143.911V42.625H137.157V14.9004H148.097C150.309 14.9004 152.178 15.2822 153.705 16.0457C155.232 16.8093 156.377 17.8624 157.141 19.2052C157.905 20.548 158.286 22.0883 158.286 23.826ZM147.584 27.3014C148.874 27.3014 149.835 26.9987 150.467 26.3931C151.099 25.7875 151.414 24.9318 151.414 23.826C151.414 22.7202 151.099 21.8645 150.467 21.2589C149.835 20.6533 148.874 20.3505 147.584 20.3505H143.911V27.3014H147.584ZM167.766 24.2604C168.556 23.0493 169.543 22.1014 170.728 21.4169C171.913 20.706 173.229 20.3505 174.677 20.3505V27.4989H172.821C171.136 27.4989 169.872 27.8675 169.03 28.6047C168.187 29.3156 167.766 30.5794 167.766 32.3961V42.625H161.012V20.5875H167.766V24.2604ZM187.147 42.9409C184.988 42.9409 183.039 42.4802 181.302 41.5587C179.59 40.6372 178.234 39.3207 177.234 37.6093C176.26 35.8979 175.773 33.8969 175.773 31.6063C175.773 29.3419 176.273 27.3541 177.273 25.6427C178.274 23.905 179.643 22.5754 181.381 21.6538C183.118 20.7323 185.067 20.2716 187.226 20.2716C189.385 20.2716 191.333 20.7323 193.071 21.6538C194.808 22.5754 196.178 23.905 197.178 25.6427C198.179 27.3541 198.679 29.3419 198.679 31.6063C198.679 33.8706 198.165 35.8716 197.139 37.6093C196.138 39.3207 194.756 40.6372 192.992 41.5587C191.254 42.4802 189.306 42.9409 187.147 42.9409ZM187.147 37.0959C188.437 37.0959 189.529 36.622 190.425 35.6741C191.346 34.7263 191.807 33.3703 191.807 31.6063C191.807 29.8422 191.359 28.4863 190.464 27.5384C189.595 26.5906 188.516 26.1166 187.226 26.1166C185.909 26.1166 184.817 26.5906 183.948 27.5384C183.079 28.4599 182.644 29.8159 182.644 31.6063C182.644 33.3703 183.066 34.7263 183.908 35.6741C184.777 36.622 185.857 37.0959 187.147 37.0959ZM208.225 23.7075C208.883 22.6807 209.792 21.8513 210.95 21.2194C212.109 20.5875 213.465 20.2716 215.018 20.2716C216.835 20.2716 218.48 20.7323 219.955 21.6538C221.429 22.5754 222.588 23.8918 223.43 25.6032C224.299 27.3146 224.734 29.3025 224.734 31.5668C224.734 33.8311 224.299 35.8321 223.43 37.5698C222.588 39.2812 221.429 40.6108 219.955 41.5587C218.48 42.4802 216.835 42.9409 215.018 42.9409C213.491 42.9409 212.135 42.625 210.95 41.9931C209.792 41.3612 208.883 40.545 208.225 39.5445V53.1303H201.472V20.5875H208.225V23.7075ZM217.862 31.5668C217.862 29.8817 217.388 28.5652 216.44 27.6174C215.518 26.6432 214.373 26.1561 213.004 26.1561C211.661 26.1561 210.516 26.6432 209.568 27.6174C208.646 28.5916 208.186 29.9212 208.186 31.6063C208.186 33.2913 208.646 34.6209 209.568 35.5951C210.516 36.5693 211.661 37.0564 213.004 37.0564C214.347 37.0564 215.492 36.5693 216.44 35.5951C217.388 34.5946 217.862 33.2518 217.862 31.5668ZM248.26 31.2508C248.26 31.8827 248.221 32.5409 248.142 33.2255H232.858C232.963 34.5946 233.398 35.6478 234.161 36.385C234.951 37.0959 235.912 37.4513 237.044 37.4513C238.729 37.4513 239.901 36.7404 240.559 35.3187H247.747C247.378 36.7668 246.707 38.0701 245.733 39.2285C244.785 40.387 243.587 41.2954 242.139 41.9536C240.691 42.6118 239.072 42.9409 237.281 42.9409C235.122 42.9409 233.2 42.4802 231.515 41.5587C229.83 40.6372 228.514 39.3207 227.566 37.6093C226.618 35.8979 226.144 33.8969 226.144 31.6063C226.144 29.3156 226.605 27.3146 227.526 25.6032C228.474 23.8918 229.791 22.5754 231.476 21.6538C233.161 20.7323 235.096 20.2716 237.281 20.2716C239.414 20.2716 241.31 20.7192 242.968 21.6143C244.627 22.5095 245.917 23.7865 246.839 25.4452C247.786 27.104 248.26 29.0392 248.26 31.2508ZM241.349 29.4736C241.349 28.3151 240.954 27.3936 240.164 26.709C239.374 26.0245 238.387 25.6822 237.202 25.6822C236.07 25.6822 235.109 26.0113 234.319 26.6695C233.556 27.3278 233.082 28.2625 232.897 29.4736H241.349ZM257.787 24.2604C258.577 23.0493 259.564 22.1014 260.749 21.4169C261.934 20.706 263.25 20.3505 264.698 20.3505V27.4989H262.842C261.157 27.4989 259.893 27.8675 259.051 28.6047C258.208 29.3156 257.787 30.5794 257.787 32.3961V42.625H251.033V20.5875H257.787V24.2604ZM279.419 36.8984V42.625H275.983C273.534 42.625 271.625 42.0326 270.256 40.8478C268.887 39.6366 268.203 37.6751 268.203 34.9632V26.1956H265.517V20.5875H268.203V15.2164H274.956V20.5875H279.379V26.1956H274.956V35.0422C274.956 35.7004 275.114 36.1744 275.43 36.464C275.746 36.7536 276.272 36.8984 277.01 36.8984H279.419ZM304.902 20.5875L291.079 53.0908H283.812L288.868 41.8746L279.903 20.5875H287.446L292.541 34.3708L297.596 20.5875H304.902ZM313.308 37.4118H322.154V42.625H306.554V14.9004H313.308V37.4118ZM334.617 42.9409C332.458 42.9409 330.51 42.4802 328.772 41.5587C327.061 40.6372 325.705 39.3207 324.704 37.6093C323.73 35.8979 323.243 33.8969 323.243 31.6063C323.243 29.3419 323.743 27.3541 324.744 25.6427C325.744 23.905 327.113 22.5754 328.851 21.6538C330.589 20.7323 332.537 20.2716 334.696 20.2716C336.855 20.2716 338.803 20.7323 340.541 21.6538C342.279 22.5754 343.648 23.905 344.649 25.6427C345.649 27.3541 346.149 29.3419 346.149 31.6063C346.149 33.8706 345.636 35.8716 344.609 37.6093C343.609 39.3207 342.226 40.6372 340.462 41.5587C338.724 42.4802 336.776 42.9409 334.617 42.9409ZM334.617 37.0959C335.907 37.0959 337 36.622 337.895 35.6741C338.817 34.7263 339.277 33.3703 339.277 31.6063C339.277 29.8422 338.83 28.4863 337.935 27.5384C337.066 26.5906 335.986 26.1166 334.696 26.1166C333.38 26.1166 332.287 26.5906 331.418 27.5384C330.549 28.4599 330.115 29.8159 330.115 31.6063C330.115 33.3703 330.536 34.7263 331.379 35.6741C332.247 36.622 333.327 37.0959 334.617 37.0959ZM358.974 42.9409C356.815 42.9409 354.866 42.4802 353.129 41.5587C351.417 40.6372 350.061 39.3207 349.061 37.6093C348.087 35.8979 347.599 33.8969 347.599 31.6063C347.599 29.3419 348.1 27.3541 349.1 25.6427C350.101 23.905 351.47 22.5754 353.208 21.6538C354.945 20.7323 356.894 20.2716 359.053 20.2716C361.212 20.2716 363.16 20.7323 364.898 21.6538C366.635 22.5754 368.005 23.905 369.005 25.6427C370.006 27.3541 370.506 29.3419 370.506 31.6063C370.506 33.8706 369.992 35.8716 368.966 37.6093C367.965 39.3207 366.583 40.6372 364.819 41.5587C363.081 42.4802 361.133 42.9409 358.974 42.9409ZM358.974 37.0959C360.264 37.0959 361.356 36.622 362.252 35.6741C363.173 34.7263 363.634 33.3703 363.634 31.6063C363.634 29.8422 363.186 28.4863 362.291 27.5384C361.422 26.5906 360.343 26.1166 359.053 26.1166C357.736 26.1166 356.643 26.5906 355.775 27.5384C354.906 28.4599 354.471 29.8159 354.471 31.6063C354.471 33.3703 354.893 34.7263 355.735 35.6741C356.604 36.622 357.683 37.0959 358.974 37.0959ZM380.052 23.7075C380.71 22.6807 381.619 21.8513 382.777 21.2194C383.936 20.5875 385.292 20.2716 386.845 20.2716C388.662 20.2716 390.307 20.7323 391.782 21.6538C393.256 22.5754 394.415 23.8918 395.257 25.6032C396.126 27.3146 396.561 29.3025 396.561 31.5668C396.561 33.8311 396.126 35.8321 395.257 37.5698C394.415 39.2812 393.256 40.6108 391.782 41.5587C390.307 42.4802 388.662 42.9409 386.845 42.9409C385.318 42.9409 383.962 42.625 382.777 41.9931C381.619 41.3612 380.71 40.545 380.052 39.5445V53.1303H373.299V20.5875H380.052V23.7075ZM389.689 31.5668C389.689 29.8817 389.215 28.5652 388.267 27.6174C387.345 26.6432 386.2 26.1561 384.831 26.1561C383.488 26.1561 382.343 26.6432 381.395 27.6174C380.473 28.5916 380.013 29.9212 380.013 31.6063C380.013 33.2913 380.473 34.6209 381.395 35.5951C382.343 36.5693 383.488 37.0564 384.831 37.0564C386.174 37.0564 387.319 36.5693 388.267 35.5951C389.215 34.5946 389.689 33.2518 389.689 31.5668Z" fill="#0F5CF0"/>
</svg>
